<svg width="1000" height="200" viewBox="0 0 1000 200" fill="none" xmlns="http://www.w3.org/2000/svg">
<defs>
  <style>
    #rain {
      animation: rain 15s;
      transform: translateY(200%);
    }

    @keyframes rain {
      0% {
        transform: translateY(-20%);
      }
      90% {
        transform: translateY(20%);
      }
      100% {
        transform: translateY(200%);
      }
    }
  </style>
</defs>
<rect width="1000" height="200" fill="#1E1E1E"/>
<g id="Frame 9">
<g clip-path="url(#clip0_0_1)">
<rect width="1000" height="200" fill="black"/>
<g id="rain">
<path id="Vector" d="M263.371 3.20293C260.122 2.35219 256.722 4.25385 255.772 7.45666L255.722 7.6068L247.223 39.1345L247.173 39.2846C246.794 40.8644 247.044 42.5298 247.87 43.9283C248.696 45.3268 250.033 46.3487 251.599 46.7778C253.164 47.207 254.835 47.0096 256.258 46.2275C257.681 45.4455 258.743 44.1401 259.222 42.5875L259.272 42.4374L267.771 10.9097L267.821 10.7095C268.621 7.45666 266.671 4.10372 263.371 3.20293Z" fill="white"/>
<path id="Vector_2" d="M219.371 26.2029C216.122 25.3522 212.722 27.2539 211.772 30.4567L211.722 30.6068L203.223 62.1345L203.173 62.2846C202.794 63.8644 203.044 65.5298 203.87 66.9283C204.696 68.3268 206.033 69.3487 207.599 69.7778C209.164 70.207 210.835 70.0096 212.258 69.2275C213.681 68.4455 214.743 67.1401 215.222 65.5875L215.272 65.4374L223.771 33.9097L223.821 33.7095C224.621 30.4567 222.671 27.1037 219.371 26.2029Z" fill="white"/>
<path id="Vector_3" d="M243.371 66.2029C240.122 65.3522 236.722 67.2539 235.772 70.4567L235.722 70.6068L227.223 102.134L227.173 102.285C226.794 103.864 227.044 105.53 227.87 106.928C228.696 108.327 230.033 109.349 231.599 109.778C233.164 110.207 234.835 110.01 236.258 109.228C237.681 108.445 238.743 107.14 239.222 105.587L239.272 105.437L247.771 73.9097L247.821 73.7095C248.621 70.4567 246.671 67.1037 243.371 66.2029Z" fill="white"/>
<path id="Vector_4" d="M222.371 -31.7971C219.122 -32.6478 215.722 -30.7461 214.772 -27.5433L214.722 -27.3932L206.223 4.13447L206.173 4.2846C205.794 5.8644 206.044 7.52976 206.87 8.92826C207.696 10.3268 209.033 11.3487 210.599 11.7778C212.164 12.207 213.835 12.0096 215.258 11.2275C216.681 10.4455 217.743 9.14006 218.222 7.5875L218.272 7.43737L226.771 -24.0903L226.821 -24.2905C227.621 -27.5433 225.671 -30.8963 222.371 -31.7971Z" fill="white"/>
<path id="Vector_5" d="M291.371 50.2029C288.122 49.3522 284.722 51.2539 283.772 54.4567L283.722 54.6068L275.223 86.1345L275.173 86.2846C274.794 87.8644 275.044 89.5298 275.87 90.9283C276.696 92.3268 278.033 93.3487 279.599 93.7778C281.164 94.207 282.835 94.0096 284.258 93.2275C285.681 92.4455 286.743 91.1401 287.222 89.5875L287.272 89.4374L295.771 57.9097L295.821 57.7095C296.621 54.4567 294.671 51.1037 291.371 50.2029Z" fill="white"/>
<path id="Vector_6" d="M209.371 103.203C206.122 102.352 202.722 104.254 201.772 107.457L201.722 107.607L193.223 139.134L193.173 139.285C192.794 140.864 193.044 142.53 193.87 143.928C194.696 145.327 196.033 146.349 197.599 146.778C199.164 147.207 200.835 147.01 202.258 146.228C203.681 145.445 204.743 144.14 205.222 142.587L205.272 142.437L213.771 110.91L213.821 110.71C214.621 107.457 212.671 104.104 209.371 103.203Z" fill="white"/>
<path id="Vector_7" d="M246.371 132.203C243.122 131.352 239.722 133.254 238.772 136.457L238.722 136.607L230.223 168.134L230.173 168.285C229.794 169.864 230.044 171.53 230.87 172.928C231.696 174.327 233.033 175.349 234.599 175.778C236.164 176.207 237.835 176.01 239.258 175.228C240.681 174.445 241.743 173.14 242.222 171.587L242.272 171.437L250.771 139.91L250.821 139.71C251.621 136.457 249.671 133.104 246.371 132.203Z" fill="white"/>
<path id="Vector_8" d="M181.371 117.203C178.122 116.352 174.722 118.254 173.772 121.457L173.722 121.607L165.223 153.134L165.173 153.285C164.794 154.864 165.044 156.53 165.87 157.928C166.696 159.327 168.033 160.349 169.599 160.778C171.164 161.207 172.835 161.01 174.258 160.228C175.681 159.445 176.743 158.14 177.222 156.587L177.272 156.437L185.771 124.91L185.821 124.71C186.621 121.457 184.671 118.104 181.371 117.203Z" fill="white"/>
<path id="Vector_9" d="M300.371 -24.7971C297.122 -25.6478 293.722 -23.7461 292.772 -20.5433L292.722 -20.3932L284.223 11.1345L284.173 11.2846C283.794 12.8644 284.044 14.5298 284.87 15.9283C285.696 17.3268 287.033 18.3487 288.599 18.7778C290.164 19.207 291.835 19.0096 293.258 18.2275C294.681 17.4455 295.743 16.1401 296.222 14.5875L296.272 14.4374L304.771 -17.0903L304.821 -17.2905C305.621 -20.5433 303.671 -23.8963 300.371 -24.7971Z" fill="white"/>
<path id="Vector_10" d="M164.371 -40.7971C161.122 -41.6478 157.722 -39.7461 156.772 -36.5433L156.722 -36.3932L148.223 -4.86553L148.173 -4.7154C147.794 -3.1356 148.044 -1.47024 148.87 -0.0717402C149.696 1.32676 151.033 2.3487 152.599 2.77783C154.164 3.20696 155.835 3.00962 157.258 2.22755C158.681 1.44548 159.743 0.140056 160.222 -1.4125L160.272 -1.56263L168.771 -33.0903L168.821 -33.2905C169.621 -36.5433 167.671 -39.8963 164.371 -40.7971Z" fill="white"/>
<path id="Vector_11" d="M120.371 -17.7971C117.122 -18.6478 113.722 -16.7461 112.772 -13.5433L112.722 -13.3932L104.223 18.1345L104.173 18.2846C103.794 19.8644 104.044 21.5298 104.87 22.9283C105.696 24.3268 107.033 25.3487 108.599 25.7778C110.164 26.207 111.835 26.0096 113.258 25.2275C114.681 24.4455 115.743 23.1401 116.222 21.5875L116.272 21.4374L124.771 -10.0903L124.821 -10.2905C125.621 -13.5433 123.671 -16.8963 120.371 -17.7971Z" fill="white"/>
<path id="Vector_12" d="M144.371 22.2029C141.122 21.3522 137.722 23.2539 136.772 26.4567L136.722 26.6068L128.223 58.1345L128.173 58.2846C127.794 59.8644 128.044 61.5298 128.87 62.9283C129.696 64.3268 131.033 65.3487 132.599 65.7778C134.164 66.207 135.835 66.0096 137.258 65.2275C138.681 64.4455 139.743 63.1401 140.222 61.5875L140.272 61.4374L148.771 29.9097L148.821 29.7095C149.621 26.4567 147.671 23.1037 144.371 22.2029Z" fill="white"/>
<path id="Vector_13" d="M180.371 44.2029C177.122 43.3522 173.722 45.2539 172.772 48.4567L172.722 48.6068L164.223 80.1345L164.173 80.2846C163.794 81.8644 164.044 83.5298 164.87 84.9283C165.696 86.3268 167.033 87.3487 168.599 87.7778C170.164 88.207 171.835 88.0096 173.258 87.2275C174.681 86.4455 175.743 85.1401 176.222 83.5875L176.272 83.4374L184.771 51.9097L184.821 51.7095C185.621 48.4567 183.671 45.1037 180.371 44.2029Z" fill="white"/>
<path id="Vector_14" d="M110.371 59.2029C107.122 58.3522 103.722 60.2539 102.772 63.4567L102.722 63.6068L94.2226 95.1345L94.1726 95.2846C93.7938 96.8644 94.0439 98.5298 94.87 99.9283C95.6961 101.327 97.0333 102.349 98.5988 102.778C100.164 103.207 101.835 103.01 103.258 102.228C104.681 101.445 105.743 100.14 106.222 98.5875L106.272 98.4374L114.771 66.9097L114.821 66.7095C115.621 63.4567 113.671 60.1037 110.371 59.2029Z" fill="white"/>
<path id="Vector_15" d="M147.371 88.2029C144.122 87.3522 140.722 89.2539 139.772 92.4567L139.722 92.6068L131.223 124.134L131.173 124.285C130.794 125.864 131.044 127.53 131.87 128.928C132.696 130.327 134.033 131.349 135.599 131.778C137.164 132.207 138.835 132.01 140.258 131.228C141.681 130.445 142.743 129.14 143.222 127.587L143.272 127.437L151.771 95.9097L151.821 95.7095C152.621 92.4567 150.671 89.1037 147.371 88.2029Z" fill="white"/>
<path id="Vector_16" d="M81.3713 102.203C78.1215 101.352 74.7218 103.254 73.7719 106.457L73.7219 106.607L65.2226 138.134L65.1726 138.285C64.7938 139.864 65.0439 141.53 65.87 142.928C66.6961 144.327 68.0333 145.349 69.5988 145.778C71.1643 146.207 72.8351 146.01 74.2578 145.228C75.6805 144.445 76.7434 143.14 77.2216 141.587L77.2716 141.437L85.7709 109.91L85.8209 109.71C86.6208 106.457 84.671 103.104 81.3713 102.203Z" fill="white"/>
<path id="Vector_17" d="M284.371 161.203C281.122 160.352 277.722 162.254 276.772 165.457L276.722 165.607L268.223 197.134L268.173 197.285C267.794 198.864 268.044 200.53 268.87 201.928C269.696 203.327 271.033 204.349 272.599 204.778C274.164 205.207 275.835 205.01 277.258 204.228C278.681 203.445 279.743 202.14 280.222 200.587L280.272 200.437L288.771 168.91L288.821 168.71C289.621 165.457 287.671 162.104 284.371 161.203Z" fill="white"/>
<path id="Vector_18" d="M320.371 184.203C317.122 183.352 313.722 185.254 312.772 188.457L312.722 188.607L304.223 220.134L304.173 220.285C303.794 221.864 304.044 223.53 304.87 224.928C305.696 226.327 307.033 227.349 308.599 227.778C310.164 228.207 311.835 228.01 313.258 227.228C314.681 226.445 315.743 225.14 316.222 223.587L316.272 223.437L324.771 191.91L324.821 191.71C325.621 188.457 323.671 185.104 320.371 184.203Z" fill="white"/>
<path id="Vector_19" d="M993.371 126.203C990.122 125.352 986.722 127.254 985.772 130.457L985.722 130.607L977.223 162.134L977.173 162.285C976.794 163.864 977.044 165.53 977.87 166.928C978.696 168.327 980.033 169.349 981.599 169.778C983.164 170.207 984.835 170.01 986.258 169.228C987.681 168.445 988.743 167.14 989.222 165.587L989.272 165.437L997.771 133.91L997.821 133.71C998.621 130.457 996.671 127.104 993.371 126.203Z" fill="white"/>
<path id="Vector_20" d="M915.42 157.158C912.171 156.307 908.771 158.209 907.821 161.412L907.771 161.562L899.272 193.09L899.222 193.24C898.843 194.82 899.093 196.485 899.919 197.883C900.745 199.282 902.082 200.304 903.648 200.733C905.213 201.162 906.884 200.965 908.307 200.183C909.73 199.401 910.792 198.095 911.271 196.543L911.321 196.393L919.82 164.865L919.87 164.665C920.67 161.412 918.72 158.059 915.42 157.158Z" fill="white"/>
<path id="Vector_21" d="M1013.37 174.203C1010.12 173.352 1006.72 175.254 1005.77 178.457L1005.72 178.607L997.223 210.134L997.173 210.285C996.794 211.864 997.044 213.53 997.87 214.928C998.696 216.327 1000.03 217.349 1001.6 217.778C1003.16 218.207 1004.84 218.01 1006.26 217.228C1007.68 216.445 1008.74 215.14 1009.22 213.587L1009.27 213.437L1017.77 181.91L1017.82 181.71C1018.62 178.457 1016.67 175.104 1013.37 174.203Z" fill="white"/>
<path id="Vector_22" d="M621.371 170.203C618.122 169.352 614.722 171.254 613.772 174.457L613.722 174.607L605.223 206.134L605.173 206.285C604.794 207.864 605.044 209.53 605.87 210.928C606.696 212.327 608.033 213.349 609.599 213.778C611.164 214.207 612.835 214.01 614.258 213.228C615.681 212.445 616.743 211.14 617.222 209.587L617.272 209.437L625.771 177.91L625.821 177.71C626.621 174.457 624.671 171.104 621.371 170.203Z" fill="white"/>
<path id="Vector_23" d="M699.371 177.203C696.122 176.352 692.722 178.254 691.772 181.457L691.722 181.607L683.223 213.134L683.173 213.285C682.794 214.864 683.044 216.53 683.87 217.928C684.696 219.327 686.033 220.349 687.599 220.778C689.164 221.207 690.835 221.01 692.258 220.228C693.681 219.445 694.743 218.14 695.222 216.587L695.272 216.437L703.771 184.91L703.821 184.71C704.621 181.457 702.671 178.104 699.371 177.203Z" fill="white"/>
<path id="Vector_24" d="M52.3713 -19.7971C49.1215 -20.6478 45.7218 -18.7461 44.7719 -15.5433L44.7219 -15.3932L36.2226 16.1345L36.1726 16.2846C35.7938 17.8644 36.0439 19.5298 36.87 20.9283C37.6961 22.3268 39.0333 23.3487 40.5988 23.7778C42.1643 24.207 43.8351 24.0096 45.2578 23.2275C46.6805 22.4455 47.7434 21.1401 48.2216 19.5875L48.2716 19.4374L56.7709 -12.0903L56.8209 -12.2905C57.6208 -15.5433 55.671 -18.8963 52.3713 -19.7971Z" fill="white"/>
<path id="Vector_25" d="M8.37127 3.20293C5.12153 2.35219 1.72181 4.25385 0.771887 7.45666L0.721891 7.6068L-7.77741 39.1345L-7.82741 39.2846C-8.20621 40.8644 -7.9561 42.5298 -7.13001 43.9283C-6.30392 45.3268 -4.96666 46.3487 -3.40119 46.7778C-1.83572 47.207 -0.164871 47.0096 1.25782 46.2275C2.6805 45.4455 3.7434 44.1401 4.22161 42.5875L4.2716 42.4374L12.7709 10.9097L12.8209 10.7095C13.6208 7.45666 11.671 4.10372 8.37127 3.20293Z" fill="white"/>
<path id="Vector_26" d="M32.3713 43.2029C29.1215 42.3522 25.7218 44.2539 24.7719 47.4567L24.7219 47.6068L16.2226 79.1345L16.1726 79.2846C15.7938 80.8644 16.0439 82.5298 16.87 83.9283C17.6961 85.3268 19.0333 86.3487 20.5988 86.7778C22.1643 87.207 23.8351 87.0096 25.2578 86.2275C26.6805 85.4455 27.7434 84.1401 28.2216 82.5875L28.2716 82.4374L36.7709 50.9097L36.8209 50.7095C37.6208 47.4567 35.671 44.1037 32.3713 43.2029Z" fill="white"/>
<path id="Vector_27" d="M68.3713 65.2029C65.1215 64.3522 61.7218 66.2539 60.7719 69.4567L60.7219 69.6068L52.2226 101.134L52.1726 101.285C51.7938 102.864 52.0439 104.53 52.87 105.928C53.6961 107.327 55.0333 108.349 56.5988 108.778C58.1643 109.207 59.8351 109.01 61.2578 108.228C62.6805 107.445 63.7434 106.14 64.2216 104.587L64.2716 104.437L72.7709 72.9097L72.8209 72.7095C73.6208 69.4567 71.671 66.1037 68.3713 65.2029Z" fill="white"/>
<path id="Vector_28" d="M-1.62873 80.2029C-4.87847 79.3522 -8.27819 81.2539 -9.22811 84.4567L-9.27811 84.6068L-17.7774 116.134L-17.8274 116.285C-18.2062 117.864 -17.9561 119.53 -17.13 120.928C-16.3039 122.327 -14.9667 123.349 -13.4012 123.778C-11.8357 124.207 -10.1649 124.01 -8.74218 123.228C-7.3195 122.445 -6.2566 121.14 -5.77839 119.587L-5.7284 119.437L2.7709 87.9097L2.8209 87.7095C3.62084 84.4567 1.671 81.1037 -1.62873 80.2029Z" fill="white"/>
<path id="Vector_29" d="M35.3713 109.203C32.1215 108.352 28.7218 110.254 27.7719 113.457L27.7219 113.607L19.2226 145.134L19.1726 145.285C18.7938 146.864 19.0439 148.53 19.87 149.928C20.6961 151.327 22.0333 152.349 23.5988 152.778C25.1643 153.207 26.8351 153.01 28.2578 152.228C29.6805 151.445 30.7434 150.14 31.2216 148.587L31.2716 148.437L39.7709 116.91L39.8209 116.71C40.6208 113.457 38.671 110.104 35.3713 109.203Z" fill="white"/>
<path id="Vector_30" d="M184.371 168.203C181.122 167.352 177.722 169.254 176.772 172.457L176.722 172.607L168.223 204.134L168.173 204.285C167.794 205.864 168.044 207.53 168.87 208.928C169.696 210.327 171.033 211.349 172.599 211.778C174.164 212.207 175.835 212.01 177.258 211.228C178.681 210.445 179.743 209.14 180.222 207.587L180.272 207.437L188.771 175.91L188.821 175.71C189.621 172.457 187.671 169.104 184.371 168.203Z" fill="white"/>
<path id="Vector_31" d="M140.371 191.203C137.122 190.352 133.722 192.254 132.772 195.457L132.722 195.607L124.223 227.134L124.173 227.285C123.794 228.864 124.044 230.53 124.87 231.928C125.696 233.327 127.033 234.349 128.599 234.778C130.164 235.207 131.835 235.01 133.258 234.228C134.681 233.445 135.743 232.14 136.222 230.587L136.272 230.437L144.771 198.91L144.821 198.71C145.621 195.457 143.671 192.104 140.371 191.203Z" fill="white"/>
<path id="Vector_32" d="M143.371 133.203C140.122 132.352 136.722 134.254 135.772 137.457L135.722 137.607L127.223 169.134L127.173 169.285C126.794 170.864 127.044 172.53 127.87 173.928C128.696 175.327 130.033 176.349 131.599 176.778C133.164 177.207 134.835 177.01 136.258 176.228C137.681 175.445 138.743 174.14 139.222 172.587L139.272 172.437L147.771 140.91L147.821 140.71C148.621 137.457 146.671 134.104 143.371 133.203Z" fill="white"/>
<path id="Vector_33" d="M221.371 140.203C218.122 139.352 214.722 141.254 213.772 144.457L213.722 144.607L205.223 176.134L205.173 176.285C204.794 177.864 205.044 179.53 205.87 180.928C206.696 182.327 208.033 183.349 209.599 183.778C211.164 184.207 212.835 184.01 214.258 183.228C215.681 182.445 216.743 181.14 217.222 179.587L217.272 179.437L225.771 147.91L225.821 147.71C226.621 144.457 224.671 141.104 221.371 140.203Z" fill="white"/>
<path id="Vector_34" d="M620.371 170.203C617.122 169.352 613.722 171.254 612.772 174.457L612.722 174.607L604.223 206.134L604.173 206.285C603.794 207.864 604.044 209.53 604.87 210.928C605.696 212.327 607.033 213.349 608.599 213.778C610.164 214.207 611.835 214.01 613.258 213.228C614.681 212.445 615.743 211.14 616.222 209.587L616.272 209.437L624.771 177.91L624.821 177.71C625.621 174.457 623.671 171.104 620.371 170.203Z" fill="white"/>
<path id="Vector_35" d="M698.371 177.203C695.122 176.352 691.722 178.254 690.772 181.457L690.722 181.607L682.223 213.134L682.173 213.285C681.794 214.864 682.044 216.53 682.87 217.928C683.696 219.327 685.033 220.349 686.599 220.778C688.164 221.207 689.835 221.01 691.258 220.228C692.681 219.445 693.743 218.14 694.222 216.587L694.272 216.437L702.771 184.91L702.821 184.71C703.621 181.457 701.671 178.104 698.371 177.203Z" fill="white"/>
<path id="Vector_36" d="M63.3713 159.203C60.1215 158.352 56.7218 160.254 55.7719 163.457L55.7219 163.607L47.2226 195.134L47.1726 195.285C46.7938 196.864 47.0439 198.53 47.87 199.928C48.6961 201.327 50.0333 202.349 51.5988 202.778C53.1643 203.207 54.8351 203.01 56.2578 202.228C57.6805 201.445 58.7434 200.14 59.2216 198.587L59.2716 198.437L67.7709 166.91L67.8209 166.71C68.6208 163.457 66.671 160.104 63.3713 159.203Z" fill="white"/>
<path id="Vector_37" d="M19.3713 182.203C16.1215 181.352 12.7218 183.254 11.7719 186.457L11.7219 186.607L3.22259 218.134L3.17259 218.285C2.79379 219.864 3.0439 221.53 3.86999 222.928C4.69608 224.327 6.03334 225.349 7.59881 225.778C9.16428 226.207 10.8351 226.01 12.2578 225.228C13.6805 224.445 14.7434 223.14 15.2216 221.587L15.2716 221.437L23.7709 189.91L23.8209 189.71C24.6208 186.457 22.671 183.104 19.3713 182.203Z" fill="white"/>
<path id="Vector_38" d="M22.3713 124.203C19.1215 123.352 15.7218 125.254 14.7719 128.457L14.7219 128.607L6.22259 160.134L6.17259 160.285C5.79379 161.864 6.0439 163.53 6.86999 164.928C7.69608 166.327 9.03334 167.349 10.5988 167.778C12.1643 168.207 13.8351 168.01 15.2578 167.228C16.6805 166.445 17.7434 165.14 18.2216 163.587L18.2716 163.437L26.7709 131.91L26.8209 131.71C27.6208 128.457 25.671 125.104 22.3713 124.203Z" fill="white"/>
<path id="Vector_39" d="M100.371 131.203C97.1215 130.352 93.7218 132.254 92.7719 135.457L92.7219 135.607L84.2226 167.134L84.1726 167.285C83.7938 168.864 84.0439 170.53 84.87 171.928C85.6961 173.327 87.0333 174.349 88.5988 174.778C90.1643 175.207 91.8351 175.01 93.2578 174.228C94.6805 173.445 95.7434 172.14 96.2216 170.587L96.2716 170.437L104.771 138.91L104.821 138.71C105.621 135.457 103.671 132.104 100.371 131.203Z" fill="white"/>
<path id="Vector_40" d="M959.371 -26.7971C956.122 -27.6478 952.722 -25.7461 951.772 -22.5433L951.722 -22.3932L943.223 9.13447L943.173 9.2846C942.794 10.8644 943.044 12.5298 943.87 13.9283C944.696 15.3268 946.033 16.3487 947.599 16.7778C949.164 17.207 950.835 17.0096 952.258 16.2275C953.681 15.4455 954.743 14.1401 955.222 12.5875L955.272 12.4374L963.771 -19.0903L963.821 -19.2905C964.621 -22.5433 962.671 -25.8963 959.371 -26.7971Z" fill="white"/>
<path id="Vector_41" d="M915.371 -3.79707C912.122 -4.64781 908.722 -2.74615 907.772 0.456664L907.722 0.606797L899.223 32.1345L899.173 32.2846C898.794 33.8644 899.044 35.5298 899.87 36.9283C900.696 38.3268 902.033 39.3487 903.599 39.7778C905.164 40.207 906.835 40.0096 908.258 39.2275C909.681 38.4455 910.743 37.1401 911.222 35.5875L911.272 35.4374L919.771 3.9097L919.821 3.70952C920.621 0.456664 918.671 -2.89628 915.371 -3.79707Z" fill="white"/>
<path id="Vector_42" d="M939.371 36.2029C936.122 35.3522 932.722 37.2539 931.772 40.4567L931.722 40.6068L923.223 72.1345L923.173 72.2846C922.794 73.8644 923.044 75.5298 923.87 76.9283C924.696 78.3268 926.033 79.3487 927.599 79.7778C929.164 80.207 930.835 80.0096 932.258 79.2275C933.681 78.4455 934.743 77.1401 935.222 75.5875L935.272 75.4374L943.771 43.9097L943.821 43.7095C944.621 40.4567 942.671 37.1037 939.371 36.2029Z" fill="white"/>
<path id="Vector_43" d="M975.371 58.2029C972.122 57.3522 968.722 59.2539 967.772 62.4567L967.722 62.6068L959.223 94.1345L959.173 94.2846C958.794 95.8644 959.044 97.5298 959.87 98.9283C960.696 100.327 962.033 101.349 963.599 101.778C965.164 102.207 966.835 102.01 968.258 101.228C969.681 100.445 970.743 99.1401 971.222 97.5875L971.272 97.4374L979.771 65.9097L979.821 65.7095C980.621 62.4567 978.671 59.1037 975.371 58.2029Z" fill="white"/>
<path id="Vector_44" d="M905.371 73.2029C902.122 72.3522 898.722 74.2539 897.772 77.4567L897.722 77.6068L889.223 109.134L889.173 109.285C888.794 110.864 889.044 112.53 889.87 113.928C890.696 115.327 892.033 116.349 893.599 116.778C895.164 117.207 896.835 117.01 898.258 116.228C899.681 115.445 900.743 114.14 901.222 112.587L901.272 112.437L909.771 80.9097L909.821 80.7095C910.621 77.4567 908.671 74.1037 905.371 73.2029Z" fill="white"/>
<path id="Vector_45" d="M942.371 102.203C939.122 101.352 935.722 103.254 934.772 106.457L934.722 106.607L926.223 138.134L926.173 138.285C925.794 139.864 926.044 141.53 926.87 142.928C927.696 144.327 929.033 145.349 930.599 145.778C932.164 146.207 933.835 146.01 935.258 145.228C936.681 144.445 937.743 143.14 938.222 141.587L938.272 141.437L946.771 109.91L946.821 109.71C947.621 106.457 945.671 103.104 942.371 102.203Z" fill="white"/>
<path id="Vector_46" d="M877.371 87.2029C874.122 86.3522 870.722 88.2539 869.772 91.4567L869.722 91.6068L861.223 123.134L861.173 123.285C860.794 124.864 861.044 126.53 861.87 127.928C862.696 129.327 864.033 130.349 865.599 130.778C867.164 131.207 868.835 131.01 870.258 130.228C871.681 129.445 872.743 128.14 873.222 126.587L873.272 126.437L881.771 94.9097L881.821 94.7095C882.621 91.4567 880.671 88.1037 877.371 87.2029Z" fill="white"/>
<path id="Vector_47" d="M562.371 161.203C559.122 160.352 555.722 162.254 554.772 165.457L554.722 165.607L546.223 197.134L546.173 197.285C545.794 198.864 546.044 200.53 546.87 201.928C547.696 203.327 549.033 204.349 550.599 204.778C552.164 205.207 553.835 205.01 555.258 204.228C556.681 203.445 557.743 202.14 558.222 200.587L558.272 200.437L566.771 168.91L566.821 168.71C567.621 165.457 565.671 162.104 562.371 161.203Z" fill="white"/>
<path id="Vector_48" d="M518.371 184.203C515.122 183.352 511.722 185.254 510.772 188.457L510.722 188.607L502.223 220.134L502.173 220.285C501.794 221.864 502.044 223.53 502.87 224.928C503.696 226.327 505.033 227.349 506.599 227.778C508.164 228.207 509.835 228.01 511.258 227.228C512.681 226.445 513.743 225.14 514.222 223.587L514.272 223.437L522.771 191.91L522.821 191.71C523.621 188.457 521.671 185.104 518.371 184.203Z" fill="white"/>
<path id="Vector_49" d="M521.371 126.203C518.122 125.352 514.722 127.254 513.772 130.457L513.722 130.607L505.223 162.134L505.173 162.285C504.794 163.864 505.044 165.53 505.87 166.928C506.696 168.327 508.033 169.349 509.599 169.778C511.164 170.207 512.835 170.01 514.258 169.228C515.681 168.445 516.743 167.14 517.222 165.587L517.272 165.437L525.771 133.91L525.821 133.71C526.621 130.457 524.671 127.104 521.371 126.203Z" fill="white"/>
<path id="Vector_50" d="M599.371 133.203C596.122 132.352 592.722 134.254 591.772 137.457L591.722 137.607L583.223 169.134L583.173 169.285C582.794 170.864 583.044 172.53 583.87 173.928C584.696 175.327 586.033 176.349 587.599 176.778C589.164 177.207 590.835 177.01 592.258 176.228C593.681 175.445 594.743 174.14 595.222 172.587L595.272 172.437L603.771 140.91L603.821 140.71C604.621 137.457 602.671 134.104 599.371 133.203Z" fill="white"/>
<path id="Vector_51" d="M856.371 184.203C853.122 183.352 849.722 185.254 848.772 188.457L848.722 188.607L840.223 220.134L840.173 220.285C839.794 221.864 840.044 223.53 840.87 224.928C841.696 226.327 843.033 227.349 844.599 227.778C846.164 228.207 847.835 228.01 849.258 227.228C850.681 226.445 851.743 225.14 852.222 223.587L852.272 223.437L860.771 191.91L860.821 191.71C861.621 188.457 859.671 185.104 856.371 184.203Z" fill="white"/>
<path id="Vector_52" d="M369.371 200.203C366.122 199.352 362.722 201.254 361.772 204.457L361.722 204.607L353.223 236.134L353.173 236.285C352.794 237.864 353.044 239.53 353.87 240.928C354.696 242.327 356.033 243.349 357.599 243.778C359.164 244.207 360.835 244.01 362.258 243.228C363.681 242.445 364.743 241.14 365.222 239.587L365.272 239.437L373.771 207.91L373.821 207.71C374.621 204.457 372.671 201.104 369.371 200.203Z" fill="white"/>
<path id="Vector_53" d="M492.371 26.2029C489.122 25.3522 485.722 27.2539 484.772 30.4567L484.722 30.6068L476.223 62.1345L476.173 62.2846C475.794 63.8644 476.044 65.5298 476.87 66.9283C477.696 68.3268 479.033 69.3487 480.599 69.7778C482.164 70.207 483.835 70.0096 485.258 69.2275C486.681 68.4455 487.743 67.1401 488.222 65.5875L488.272 65.4374L496.771 33.9097L496.821 33.7095C497.621 30.4567 495.671 27.1037 492.371 26.2029Z" fill="white"/>
<path id="Vector_54" d="M448.371 49.2029C445.122 48.3522 441.722 50.2539 440.772 53.4567L440.722 53.6068L432.223 85.1345L432.173 85.2846C431.794 86.8644 432.044 88.5298 432.87 89.9283C433.696 91.3268 435.033 92.3487 436.599 92.7778C438.164 93.207 439.835 93.0096 441.258 92.2275C442.681 91.4455 443.743 90.1401 444.222 88.5875L444.272 88.4374L452.771 56.9097L452.821 56.7095C453.621 53.4567 451.671 50.1037 448.371 49.2029Z" fill="white"/>
<path id="Vector_55" d="M472.371 89.2029C469.122 88.3522 465.722 90.2539 464.772 93.4567L464.722 93.6068L456.223 125.134L456.173 125.285C455.794 126.864 456.044 128.53 456.87 129.928C457.696 131.327 459.033 132.349 460.599 132.778C462.164 133.207 463.835 133.01 465.258 132.228C466.681 131.445 467.743 130.14 468.222 128.587L468.272 128.437L476.771 96.9097L476.821 96.7095C477.621 93.4567 475.671 90.1037 472.371 89.2029Z" fill="white"/>
<path id="Vector_56" d="M451.371 -8.79707C448.122 -9.64781 444.722 -7.74615 443.772 -4.54334L443.722 -4.3932L435.223 27.1345L435.173 27.2846C434.794 28.8644 435.044 30.5298 435.87 31.9283C436.696 33.3268 438.033 34.3487 439.599 34.7778C441.164 35.207 442.835 35.0096 444.258 34.2275C445.681 33.4455 446.743 32.1401 447.222 30.5875L447.272 30.4374L455.771 -1.0903L455.821 -1.29048C456.621 -4.54334 454.671 -7.89628 451.371 -8.79707Z" fill="white"/>
<path id="Vector_57" d="M508.371 111.203C505.122 110.352 501.722 112.254 500.772 115.457L500.722 115.607L492.223 147.134L492.173 147.285C491.794 148.864 492.044 150.53 492.87 151.928C493.696 153.327 495.033 154.349 496.599 154.778C498.164 155.207 499.835 155.01 501.258 154.228C502.681 153.445 503.743 152.14 504.222 150.587L504.272 150.437L512.771 118.91L512.821 118.71C513.621 115.457 511.671 112.104 508.371 111.203Z" fill="white"/>
<path id="Vector_58" d="M438.371 126.203C435.122 125.352 431.722 127.254 430.772 130.457L430.722 130.607L422.223 162.134L422.173 162.285C421.794 163.864 422.044 165.53 422.87 166.928C423.696 168.327 425.033 169.349 426.599 169.778C428.164 170.207 429.835 170.01 431.258 169.228C432.681 168.445 433.743 167.14 434.222 165.587L434.272 165.437L442.771 133.91L442.821 133.71C443.621 130.457 441.671 127.104 438.371 126.203Z" fill="white"/>
<path id="Vector_59" d="M475.371 155.203C472.122 154.352 468.722 156.254 467.772 159.457L467.722 159.607L459.223 191.134L459.173 191.285C458.794 192.864 459.044 194.53 459.87 195.928C460.696 197.327 462.033 198.349 463.599 198.778C465.164 199.207 466.835 199.01 468.258 198.228C469.681 197.445 470.743 196.14 471.222 194.587L471.272 194.437L479.771 162.91L479.821 162.71C480.621 159.457 478.671 156.104 475.371 155.203Z" fill="white"/>
<path id="Vector_60" d="M410.371 140.203C407.122 139.352 403.722 141.254 402.772 144.457L402.722 144.607L394.223 176.134L394.173 176.285C393.794 177.864 394.044 179.53 394.87 180.928C395.696 182.327 397.033 183.349 398.599 183.778C400.164 184.207 401.835 184.01 403.258 183.228C404.681 182.445 405.743 181.14 406.222 179.587L406.272 179.437L414.771 147.91L414.821 147.71C415.621 144.457 413.671 141.104 410.371 140.203Z" fill="white"/>
<path id="Vector_61" d="M529.371 -1.79707C526.122 -2.64781 522.722 -0.746147 521.772 2.45666L521.722 2.6068L513.223 34.1345L513.173 34.2846C512.794 35.8644 513.044 37.5298 513.87 38.9283C514.696 40.3268 516.033 41.3487 517.599 41.7778C519.164 42.207 520.835 42.0096 522.258 41.2275C523.681 40.4455 524.743 39.1401 525.222 37.5875L525.272 37.4374L533.771 5.9097L533.821 5.70952C534.621 2.45666 532.671 -0.896277 529.371 -1.79707Z" fill="white"/>
<path id="Vector_62" d="M821.371 34.2029C818.122 33.3522 814.722 35.2539 813.772 38.4567L813.722 38.6068L805.223 70.1345L805.173 70.2846C804.794 71.8644 805.044 73.5298 805.87 74.9283C806.696 76.3268 808.033 77.3487 809.599 77.7778C811.164 78.207 812.835 78.0096 814.258 77.2275C815.681 76.4455 816.743 75.1401 817.222 73.5875L817.272 73.4374L825.771 41.9097L825.821 41.7095C826.621 38.4567 824.671 35.1037 821.371 34.2029Z" fill="white"/>
<path id="Vector_63" d="M777.371 57.2029C774.122 56.3522 770.722 58.2539 769.772 61.4567L769.722 61.6068L761.223 93.1345L761.173 93.2846C760.794 94.8644 761.044 96.5298 761.87 97.9283C762.696 99.3268 764.033 100.349 765.599 100.778C767.164 101.207 768.835 101.01 770.258 100.228C771.681 99.4455 772.743 98.1401 773.222 96.5875L773.272 96.4374L781.771 64.9097L781.821 64.7095C782.621 61.4567 780.671 58.1037 777.371 57.2029Z" fill="white"/>
<path id="Vector_64" d="M801.371 97.2029C798.122 96.3522 794.722 98.2539 793.772 101.457L793.722 101.607L785.223 133.134L785.173 133.285C784.794 134.864 785.044 136.53 785.87 137.928C786.696 139.327 788.033 140.349 789.599 140.778C791.164 141.207 792.835 141.01 794.258 140.228C795.681 139.445 796.743 138.14 797.222 136.587L797.272 136.437L805.771 104.91L805.821 104.71C806.621 101.457 804.671 98.1037 801.371 97.2029Z" fill="white"/>
<path id="Vector_65" d="M780.371 -0.797067C777.122 -1.64781 773.722 0.253853 772.772 3.45666L772.722 3.6068L764.223 35.1345L764.173 35.2846C763.794 36.8644 764.044 38.5298 764.87 39.9283C765.696 41.3268 767.033 42.3487 768.599 42.7778C770.164 43.207 771.835 43.0096 773.258 42.2275C774.681 41.4455 775.743 40.1401 776.222 38.5875L776.272 38.4374L784.771 6.9097L784.821 6.70952C785.621 3.45666 783.671 0.103723 780.371 -0.797067Z" fill="white"/>
<path id="Vector_66" d="M837.371 119.203C834.122 118.352 830.722 120.254 829.772 123.457L829.722 123.607L821.223 155.134L821.173 155.285C820.794 156.864 821.044 158.53 821.87 159.928C822.696 161.327 824.033 162.349 825.599 162.778C827.164 163.207 828.835 163.01 830.258 162.228C831.681 161.445 832.743 160.14 833.222 158.587L833.272 158.437L841.771 126.91L841.821 126.71C842.621 123.457 840.671 120.104 837.371 119.203Z" fill="white"/>
<path id="Vector_67" d="M767.371 134.203C764.122 133.352 760.722 135.254 759.772 138.457L759.722 138.607L751.223 170.134L751.173 170.285C750.794 171.864 751.044 173.53 751.87 174.928C752.696 176.327 754.033 177.349 755.599 177.778C757.164 178.207 758.835 178.01 760.258 177.228C761.681 176.445 762.743 175.14 763.222 173.587L763.272 173.437L771.771 141.91L771.821 141.71C772.621 138.457 770.671 135.104 767.371 134.203Z" fill="white"/>
<path id="Vector_68" d="M804.371 163.203C801.122 162.352 797.722 164.254 796.772 167.457L796.722 167.607L788.223 199.134L788.173 199.285C787.794 200.864 788.044 202.53 788.87 203.928C789.696 205.327 791.033 206.349 792.599 206.778C794.164 207.207 795.835 207.01 797.258 206.228C798.681 205.445 799.743 204.14 800.222 202.587L800.272 202.437L808.771 170.91L808.821 170.71C809.621 167.457 807.671 164.104 804.371 163.203Z" fill="white"/>
<path id="Vector_69" d="M739.371 148.203C736.122 147.352 732.722 149.254 731.772 152.457L731.722 152.607L723.223 184.134L723.173 184.285C722.794 185.864 723.044 187.53 723.87 188.928C724.696 190.327 726.033 191.349 727.599 191.778C729.164 192.207 730.835 192.01 732.258 191.228C733.681 190.445 734.743 189.14 735.222 187.587L735.272 187.437L743.771 155.91L743.821 155.71C744.621 152.457 742.671 149.104 739.371 148.203Z" fill="white"/>
<path id="Vector_70" d="M858.371 6.20293C855.122 5.35219 851.722 7.25385 850.772 10.4567L850.722 10.6068L842.223 42.1345L842.173 42.2846C841.794 43.8644 842.044 45.5298 842.87 46.9283C843.696 48.3268 845.033 49.3487 846.599 49.7778C848.164 50.207 849.835 50.0096 851.258 49.2275C852.681 48.4455 853.743 47.1401 854.222 45.5875L854.272 45.4374L862.771 13.9097L862.821 13.7095C863.621 10.4567 861.671 7.10372 858.371 6.20293Z" fill="white"/>
<path id="Vector_71" d="M722.371 -9.79707C719.122 -10.6478 715.722 -8.74615 714.772 -5.54334L714.722 -5.3932L706.223 26.1345L706.173 26.2846C705.794 27.8644 706.044 29.5298 706.87 30.9283C707.696 32.3268 709.033 33.3487 710.599 33.7778C712.164 34.207 713.835 34.0096 715.258 33.2275C716.681 32.4455 717.743 31.1401 718.222 29.5875L718.272 29.4374L726.771 -2.0903L726.821 -2.29048C727.621 -5.54334 725.671 -8.89628 722.371 -9.79707Z" fill="white"/>
<path id="Vector_72" d="M678.371 13.2029C675.122 12.3522 671.722 14.2539 670.772 17.4567L670.722 17.6068L662.223 49.1345L662.173 49.2846C661.794 50.8644 662.044 52.5298 662.87 53.9283C663.696 55.3268 665.033 56.3487 666.599 56.7778C668.164 57.207 669.835 57.0096 671.258 56.2275C672.681 55.4455 673.743 54.1401 674.222 52.5875L674.272 52.4374L682.771 20.9097L682.821 20.7095C683.621 17.4567 681.671 14.1037 678.371 13.2029Z" fill="white"/>
<path id="Vector_73" d="M702.371 53.2029C699.122 52.3522 695.722 54.2539 694.772 57.4567L694.722 57.6068L686.223 89.1345L686.173 89.2846C685.794 90.8644 686.044 92.5298 686.87 93.9283C687.696 95.3268 689.033 96.3487 690.599 96.7778C692.164 97.207 693.835 97.0096 695.258 96.2275C696.681 95.4455 697.743 94.1401 698.222 92.5875L698.272 92.4374L706.771 60.9097L706.821 60.7095C707.621 57.4567 705.671 54.1037 702.371 53.2029Z" fill="white"/>
<path id="Vector_74" d="M738.371 75.2029C735.122 74.3522 731.722 76.2539 730.772 79.4567L730.722 79.6068L722.223 111.134L722.173 111.285C721.794 112.864 722.044 114.53 722.87 115.928C723.696 117.327 725.033 118.349 726.599 118.778C728.164 119.207 729.835 119.01 731.258 118.228C732.681 117.445 733.743 116.14 734.222 114.587L734.272 114.437L742.771 82.9097L742.821 82.7095C743.621 79.4567 741.671 76.1037 738.371 75.2029Z" fill="white"/>
<path id="Vector_75" d="M668.371 90.2029C665.122 89.3522 661.722 91.2539 660.772 94.4567L660.722 94.6068L652.223 126.134L652.173 126.285C651.794 127.864 652.044 129.53 652.87 130.928C653.696 132.327 655.033 133.349 656.599 133.778C658.164 134.207 659.835 134.01 661.258 133.228C662.681 132.445 663.743 131.14 664.222 129.587L664.272 129.437L672.771 97.9097L672.821 97.7095C673.621 94.4567 671.671 91.1037 668.371 90.2029Z" fill="white"/>
<path id="Vector_76" d="M705.371 119.203C702.122 118.352 698.722 120.254 697.772 123.457L697.722 123.607L689.223 155.134L689.173 155.285C688.794 156.864 689.044 158.53 689.87 159.928C690.696 161.327 692.033 162.349 693.599 162.778C695.164 163.207 696.835 163.01 698.258 162.228C699.681 161.445 700.743 160.14 701.222 158.587L701.272 158.437L709.771 126.91L709.821 126.71C710.621 123.457 708.671 120.104 705.371 119.203Z" fill="white"/>
<path id="Vector_77" d="M640.371 104.203C637.122 103.352 633.722 105.254 632.772 108.457L632.722 108.607L624.223 140.134L624.173 140.285C623.794 141.864 624.044 143.53 624.87 144.928C625.696 146.327 627.033 147.349 628.599 147.778C630.164 148.207 631.835 148.01 633.258 147.228C634.681 146.445 635.743 145.14 636.222 143.587L636.272 143.437L644.771 111.91L644.821 111.71C645.621 108.457 643.671 105.104 640.371 104.203Z" fill="white"/>
<path id="Vector_78" d="M759.371 -37.7971C756.122 -38.6478 752.722 -36.7461 751.772 -33.5433L751.722 -33.3932L743.223 -1.86553L743.173 -1.7154C742.794 -0.135597 743.044 1.52976 743.87 2.92826C744.696 4.32676 746.033 5.3487 747.599 5.77783C749.164 6.20696 750.835 6.00962 752.258 5.22755C753.681 4.44548 754.743 3.14006 755.222 1.5875L755.272 1.43737L763.771 -30.0903L763.821 -30.2905C764.621 -33.5433 762.671 -36.8963 759.371 -37.7971Z" fill="white"/>
<path id="Vector_79" d="M393.371 -17.7971C390.122 -18.6478 386.722 -16.7461 385.772 -13.5433L385.722 -13.3932L377.223 18.1345L377.173 18.2846C376.794 19.8644 377.044 21.5298 377.87 22.9283C378.696 24.3268 380.033 25.3487 381.599 25.7778C383.164 26.207 384.835 26.0096 386.258 25.2275C387.681 24.4455 388.743 23.1401 389.222 21.5875L389.272 21.4374L397.771 -10.0903L397.821 -10.2905C398.621 -13.5433 396.671 -16.8963 393.371 -17.7971Z" fill="white"/>
<path id="Vector_80" d="M349.371 5.20293C346.122 4.35219 342.722 6.25385 341.772 9.45666L341.722 9.6068L333.223 41.1345L333.173 41.2846C332.794 42.8644 333.044 44.5298 333.87 45.9283C334.696 47.3268 336.033 48.3487 337.599 48.7778C339.164 49.207 340.835 49.0096 342.258 48.2275C343.681 47.4455 344.743 46.1401 345.222 44.5875L345.272 44.4374L353.771 12.9097L353.821 12.7095C354.621 9.45666 352.671 6.10372 349.371 5.20293Z" fill="white"/>
<path id="Vector_81" d="M373.371 45.2029C370.122 44.3522 366.722 46.2539 365.772 49.4567L365.722 49.6068L357.223 81.1345L357.173 81.2846C356.794 82.8644 357.044 84.5298 357.87 85.9283C358.696 87.3268 360.033 88.3487 361.599 88.7778C363.164 89.207 364.835 89.0096 366.258 88.2275C367.681 87.4455 368.743 86.1401 369.222 84.5875L369.272 84.4374L377.771 52.9097L377.821 52.7095C378.621 49.4567 376.671 46.1037 373.371 45.2029Z" fill="white"/>
<path id="Vector_82" d="M409.371 67.2029C406.122 66.3522 402.722 68.2539 401.772 71.4567L401.722 71.6068L393.223 103.134L393.173 103.285C392.794 104.864 393.044 106.53 393.87 107.928C394.696 109.327 396.033 110.349 397.599 110.778C399.164 111.207 400.835 111.01 402.258 110.228C403.681 109.445 404.743 108.14 405.222 106.587L405.272 106.437L413.771 74.9097L413.821 74.7095C414.621 71.4567 412.671 68.1037 409.371 67.2029Z" fill="white"/>
<path id="Vector_83" d="M339.371 82.2029C336.122 81.3522 332.722 83.2539 331.772 86.4567L331.722 86.6068L323.223 118.134L323.173 118.285C322.794 119.864 323.044 121.53 323.87 122.928C324.696 124.327 326.033 125.349 327.599 125.778C329.164 126.207 330.835 126.01 332.258 125.228C333.681 124.445 334.743 123.14 335.222 121.587L335.272 121.437L343.771 89.9097L343.821 89.7095C344.621 86.4567 342.671 83.1037 339.371 82.2029Z" fill="white"/>
<path id="Vector_84" d="M376.371 111.203C373.122 110.352 369.722 112.254 368.772 115.457L368.722 115.607L360.223 147.134L360.173 147.285C359.794 148.864 360.044 150.53 360.87 151.928C361.696 153.327 363.033 154.349 364.599 154.778C366.164 155.207 367.835 155.01 369.258 154.228C370.681 153.445 371.743 152.14 372.222 150.587L372.272 150.437L380.771 118.91L380.821 118.71C381.621 115.457 379.671 112.104 376.371 111.203Z" fill="white"/>
<path id="Vector_85" d="M311.371 96.2029C308.122 95.3522 304.722 97.2539 303.772 100.457L303.722 100.607L295.223 132.134L295.173 132.285C294.794 133.864 295.044 135.53 295.87 136.928C296.696 138.327 298.033 139.349 299.599 139.778C301.164 140.207 302.835 140.01 304.258 139.228C305.681 138.445 306.743 137.14 307.222 135.587L307.272 135.437L315.771 103.91L315.821 103.71C316.621 100.457 314.671 97.1037 311.371 96.2029Z" fill="white"/>
<path id="Vector_86" d="M722.371 -9.79707C719.122 -10.6478 715.722 -8.74615 714.772 -5.54334L714.722 -5.3932L706.223 26.1345L706.173 26.2846C705.794 27.8644 706.044 29.5298 706.87 30.9283C707.696 32.3268 709.033 33.3487 710.599 33.7778C712.164 34.207 713.835 34.0096 715.258 33.2275C716.681 32.4455 717.743 31.1401 718.222 29.5875L718.272 29.4374L726.771 -2.0903L726.821 -2.29048C727.621 -5.54334 725.671 -8.89628 722.371 -9.79707Z" fill="white"/>
<path id="Vector_87" d="M678.371 13.2029C675.122 12.3522 671.722 14.2539 670.772 17.4567L670.722 17.6068L662.223 49.1345L662.173 49.2846C661.794 50.8644 662.044 52.5298 662.87 53.9283C663.696 55.3268 665.033 56.3487 666.599 56.7778C668.164 57.207 669.835 57.0096 671.258 56.2275C672.681 55.4455 673.743 54.1401 674.222 52.5875L674.272 52.4374L682.771 20.9097L682.821 20.7095C683.621 17.4567 681.671 14.1037 678.371 13.2029Z" fill="white"/>
<path id="Vector_88" d="M702.371 53.2029C699.122 52.3522 695.722 54.2539 694.772 57.4567L694.722 57.6068L686.223 89.1345L686.173 89.2846C685.794 90.8644 686.044 92.5298 686.87 93.9283C687.696 95.3268 689.033 96.3487 690.599 96.7778C692.164 97.207 693.835 97.0096 695.258 96.2275C696.681 95.4455 697.743 94.1401 698.222 92.5875L698.272 92.4374L706.771 60.9097L706.821 60.7095C707.621 57.4567 705.671 54.1037 702.371 53.2029Z" fill="white"/>
<path id="Vector_89" d="M738.371 75.2029C735.122 74.3522 731.722 76.2539 730.772 79.4567L730.722 79.6068L722.223 111.134L722.173 111.285C721.794 112.864 722.044 114.53 722.87 115.928C723.696 117.327 725.033 118.349 726.599 118.778C728.164 119.207 729.835 119.01 731.258 118.228C732.681 117.445 733.743 116.14 734.222 114.587L734.272 114.437L742.771 82.9097L742.821 82.7095C743.621 79.4567 741.671 76.1037 738.371 75.2029Z" fill="white"/>
<path id="Vector_90" d="M668.371 90.2029C665.122 89.3522 661.722 91.2539 660.772 94.4567L660.722 94.6068L652.223 126.134L652.173 126.285C651.794 127.864 652.044 129.53 652.87 130.928C653.696 132.327 655.033 133.349 656.599 133.778C658.164 134.207 659.835 134.01 661.258 133.228C662.681 132.445 663.743 131.14 664.222 129.587L664.272 129.437L672.771 97.9097L672.821 97.7095C673.621 94.4567 671.671 91.1037 668.371 90.2029Z" fill="white"/>
<path id="Vector_91" d="M705.371 119.203C702.122 118.352 698.722 120.254 697.772 123.457L697.722 123.607L689.223 155.134L689.173 155.285C688.794 156.864 689.044 158.53 689.87 159.928C690.696 161.327 692.033 162.349 693.599 162.778C695.164 163.207 696.835 163.01 698.258 162.228C699.681 161.445 700.743 160.14 701.222 158.587L701.272 158.437L709.771 126.91L709.821 126.71C710.621 123.457 708.671 120.104 705.371 119.203Z" fill="white"/>
<path id="Vector_92" d="M640.371 104.203C637.122 103.352 633.722 105.254 632.772 108.457L632.722 108.607L624.223 140.134L624.173 140.285C623.794 141.864 624.044 143.53 624.87 144.928C625.696 146.327 627.033 147.349 628.599 147.778C630.164 148.207 631.835 148.01 633.258 147.228C634.681 146.445 635.743 145.14 636.222 143.587L636.272 143.437L644.771 111.91L644.821 111.71C645.621 108.457 643.671 105.104 640.371 104.203Z" fill="white"/>
<path id="Vector_93" d="M759.371 -37.7971C756.122 -38.6478 752.722 -36.7461 751.772 -33.5433L751.722 -33.3932L743.223 -1.86553L743.173 -1.7154C742.794 -0.135597 743.044 1.52976 743.87 2.92826C744.696 4.32676 746.033 5.3487 747.599 5.77783C749.164 6.20696 750.835 6.00962 752.258 5.22755C753.681 4.44548 754.743 3.14006 755.222 1.5875L755.272 1.43737L763.771 -30.0903L763.821 -30.2905C764.621 -33.5433 762.671 -36.8963 759.371 -37.7971Z" fill="white"/>
<path id="Vector_94" d="M579.371 -30.7971C576.122 -31.6478 572.722 -29.7461 571.772 -26.5433L571.722 -26.3932L563.223 5.13447L563.173 5.2846C562.794 6.8644 563.044 8.52976 563.87 9.92826C564.696 11.3268 566.033 12.3487 567.599 12.7778C569.164 13.207 570.835 13.0096 572.258 12.2275C573.681 11.4455 574.743 10.1401 575.222 8.5875L575.272 8.43737L583.771 -23.0903L583.821 -23.2905C584.621 -26.5433 582.671 -29.8963 579.371 -30.7971Z" fill="white"/>
<path id="Vector_95" d="M603.371 9.20293C600.122 8.35219 596.722 10.2539 595.772 13.4567L595.722 13.6068L587.223 45.1345L587.173 45.2846C586.794 46.8644 587.044 48.5298 587.87 49.9283C588.696 51.3268 590.033 52.3487 591.599 52.7778C593.164 53.207 594.835 53.0096 596.258 52.2275C597.681 51.4455 598.743 50.1401 599.222 48.5875L599.272 48.4374L607.771 16.9097L607.821 16.7095C608.621 13.4567 606.671 10.1037 603.371 9.20293Z" fill="white"/>
<path id="Vector_96" d="M639.371 31.2029C636.122 30.3522 632.722 32.2539 631.772 35.4567L631.722 35.6068L623.223 67.1345L623.173 67.2846C622.794 68.8644 623.044 70.5298 623.87 71.9283C624.696 73.3268 626.033 74.3487 627.599 74.7778C629.164 75.207 630.835 75.0096 632.258 74.2275C633.681 73.4455 634.743 72.1401 635.222 70.5875L635.272 70.4374L643.771 38.9097L643.821 38.7095C644.621 35.4567 642.671 32.1037 639.371 31.2029Z" fill="white"/>
<path id="Vector_97" d="M569.371 46.2029C566.122 45.3522 562.722 47.2539 561.772 50.4567L561.722 50.6068L553.223 82.1345L553.173 82.2846C552.794 83.8644 553.044 85.5298 553.87 86.9283C554.696 88.3268 556.033 89.3487 557.599 89.7778C559.164 90.207 560.835 90.0096 562.258 89.2275C563.681 88.4455 564.743 87.1401 565.222 85.5875L565.272 85.4374L573.771 53.9097L573.821 53.7095C574.621 50.4567 572.671 47.1037 569.371 46.2029Z" fill="white"/>
<path id="Vector_98" d="M606.371 75.2029C603.122 74.3522 599.722 76.2539 598.772 79.4567L598.722 79.6068L590.223 111.134L590.173 111.285C589.794 112.864 590.044 114.53 590.87 115.928C591.696 117.327 593.033 118.349 594.599 118.778C596.164 119.207 597.835 119.01 599.258 118.228C600.681 117.445 601.743 116.14 602.222 114.587L602.272 114.437L610.771 82.9097L610.821 82.7095C611.621 79.4567 609.671 76.1037 606.371 75.2029Z" fill="white"/>
<path id="Vector_99" d="M541.371 60.2029C538.122 59.3522 534.722 61.2539 533.772 64.4567L533.722 64.6068L525.223 96.1345L525.173 96.2846C524.794 97.8644 525.044 99.5298 525.87 100.928C526.696 102.327 528.033 103.349 529.599 103.778C531.164 104.207 532.835 104.01 534.258 103.228C535.681 102.445 536.743 101.14 537.222 99.5875L537.272 99.4374L545.771 67.9097L545.821 67.7095C546.621 64.4567 544.671 61.1037 541.371 60.2029Z" fill="white"/>
</g>
<g id="deno">
<g id="Vector_100">
<mask id="path-102-inside-1_0_1" fill="white">
<path d="M490.193 71C461.988 71 440 88.78 440 110.882C440 131.733 460.206 145.039 491.52 144.395L492.468 144.357L495.918 144.243L495.046 146.518L495.16 146.745C495.409 147.33 495.637 147.925 495.842 148.527L495.918 148.754L496.032 149.133L496.183 149.664L496.297 150.005L496.449 150.384L496.562 150.801L496.714 151.408L496.904 152.053L497.017 152.47L497.207 153.152L497.396 153.872L497.548 154.592L497.738 155.351L497.889 155.881L498.079 156.715L498.268 157.55L498.534 158.687L498.647 159.293L498.837 160.203L499.027 161.151L499.254 162.137L499.519 163.539L499.747 164.677L500.05 166.269L500.202 167.065L500.467 168.316L500.695 169.605L500.998 171.349L501.339 173.169L501.642 175.064L501.984 176.998L502.325 178.969L502.666 181.016L503.007 183.139L503.273 184.769L503.69 187.537L503.879 188.674L504.334 191.593L504.675 193.981L504.978 195.801L505.32 198.303L505.509 199.554C532.5 198.5 536 199.554 558.735 198.5C558.735 198.5 560.89 181.822 558.735 171.501C558.14 168.649 556.802 164.298 556.802 164.298L551.684 145.153L548.5 133.249L545.694 122.786L543.95 116.417L542.851 112.398L542.207 109.972L541.6 107.849L541.372 106.939L541.221 106.446L541.145 106.181L541.069 105.953C538.112 96.4379 532.388 88.0218 524.578 81.9182C515.404 74.7531 503.765 71 490.193 71Z"/>
</mask>
<path d="M490.193 71C461.988 71 440 88.78 440 110.882C440 131.733 460.206 145.039 491.52 144.395L492.468 144.357L495.918 144.243L495.046 146.518L495.16 146.745C495.409 147.33 495.637 147.925 495.842 148.527L495.918 148.754L496.032 149.133L496.183 149.664L496.297 150.005L496.449 150.384L496.562 150.801L496.714 151.408L496.904 152.053L497.017 152.47L497.207 153.152L497.396 153.872L497.548 154.592L497.738 155.351L497.889 155.881L498.079 156.715L498.268 157.55L498.534 158.687L498.647 159.293L498.837 160.203L499.027 161.151L499.254 162.137L499.519 163.539L499.747 164.677L500.05 166.269L500.202 167.065L500.467 168.316L500.695 169.605L500.998 171.349L501.339 173.169L501.642 175.064L501.984 176.998L502.325 178.969L502.666 181.016L503.007 183.139L503.273 184.769L503.69 187.537L503.879 188.674L504.334 191.593L504.675 193.981L504.978 195.801L505.32 198.303L505.509 199.554C532.5 198.5 536 199.554 558.735 198.5C558.735 198.5 560.89 181.822 558.735 171.501C558.14 168.649 556.802 164.298 556.802 164.298L551.684 145.153L548.5 133.249L545.694 122.786L543.95 116.417L542.851 112.398L542.207 109.972L541.6 107.849L541.372 106.939L541.221 106.446L541.145 106.181L541.069 105.953C538.112 96.4379 532.388 88.0218 524.578 81.9182C515.404 74.7531 503.765 71 490.193 71Z" fill="white" stroke="black" stroke-width="8" mask="url(#path-102-inside-1_0_1)"/>
</g>
<path id="Vector_101" d="M495.495 86.0145C497.103 86.0145 498.646 86.6536 499.784 87.7911C500.921 88.9287 501.56 90.4715 501.56 92.0802C501.56 93.6889 500.921 95.2317 499.784 96.3693C498.646 97.5068 497.103 98.1459 495.495 98.1459C493.886 98.1459 492.343 97.5068 491.205 96.3693C490.068 95.2317 489.429 93.6889 489.429 92.0802C489.429 90.4715 490.068 88.9287 491.205 87.7911C492.343 86.6536 493.886 86.0145 495.495 86.0145Z" fill="black"/>
</g>
</g>
<rect x="5" y="5" width="990" height="190" stroke="black" stroke-width="10"/>
</g>
<defs>
<clipPath id="clip0_0_1">
<rect width="1000" height="200" fill="white"/>
</clipPath>
</defs>
</svg>
